<?xml version="1.0" encoding="utf-8"?>
<!-- Generator: Adobe Illustrator 16.0.0, SVG Export Plug-In . SVG Version: 6.00 Build 0)  -->
<!DOCTYPE svg PUBLIC "-//W3C//DTD SVG 1.1//EN" "http://www.w3.org/Graphics/SVG/1.1/DTD/svg11.dtd">
<svg version="1.1" id="Layer_1" xmlns="http://www.w3.org/2000/svg" xmlns:xlink="http://www.w3.org/1999/xlink" x="0px" y="0px"
	 width="431.97px" height="406px" viewBox="-11.03 8.14 431.97 406" enable-background="new -11.03 8.14 431.97 406"
	 xml:space="preserve">
<g id="XMLID_2_">
	<path id="XMLID_15_" fill="#C9C9C9" d="M247.614,191.5c0.668,0.669,3.341,1.337,6.014-1.336l96.215-95.547
		c4.009-4.009,4.009-10.69-0.668-14.031c-26.727-21.381-59.467-34.744-94.211-38.753c-6.014-0.669-10.69,4.009-10.69,9.354v134.968
		C244.273,190.164,246.278,191.5,247.614,191.5z"/>
	<path id="XMLID_13_" fill="#C9C9C9" d="M364.541,110.653L120.663,351.19c-4.009,4.009-4.009,10.69,0.668,14.031
		c32.74,24.722,71.493,38.085,112.251,38.085h0.668c100.893,0,183.076-81.516,183.076-181.07c0-40.09-13.363-78.844-38.085-110.247
		C375.901,107.312,369.219,106.644,364.541,110.653z"/>
	<path id="XMLID_11_" fill="#FECB04" d="M43.156,315.109l13.363-13.362L5.74,251.635C13.758,275.02,26.452,296.401,43.156,315.109z"
		/>
	<path id="XMLID_9_" fill="#FECB04" d="M7.076,134.707c-6.682,18.708-10.69,38.753-10.69,59.466c0,2.673,0,5.346,0,8.687
		l80.179,78.842l39.422-38.752L7.076,134.707z"/>
	<path id="XMLID_7_" fill="#FECB04" d="M166.098,15.774c-8.018,0.668-16.035,1.337-24.054,3.341l24.054,23.386V15.774z"/>
	<path id="XMLID_5_" fill="#FECB04" d="M166.098,82.59l-55.457-54.789c-14.699,6.014-28.063,13.363-40.758,22.05l95.547,93.542
		L166.098,82.59L166.098,82.59z"/>
	<path id="XMLID_3_" fill="#FECB04" d="M157.412,202.191c5.345-4.678,8.018-11.359,8.686-18.041L49.17,68.558
		c-11.358,11.359-21.381,24.723-29.398,38.754l116.928,114.923L157.412,202.191z"/>
</g>
</svg>
