<?xml version="1.0" encoding="utf-8"?>
<!-- Generator: Adobe Illustrator 16.0.0, SVG Export Plug-In . SVG Version: 6.00 Build 0)  -->
<!DOCTYPE svg PUBLIC "-//W3C//DTD SVG 1.1//EN" "http://www.w3.org/Graphics/SVG/1.1/DTD/svg11.dtd">
<svg version="1.1" id="Layer_1" xmlns="http://www.w3.org/2000/svg" xmlns:xlink="http://www.w3.org/1999/xlink" x="0px" y="0px"
	 width="437px" height="219px" viewBox="-7.03 191.14 437 219" enable-background="new -7.03 191.14 437 219" xml:space="preserve">
<g>
	<path fill="#C9C9C9" d="M149.083,249.996h47.794v14.47c0,2.631,3.069,4.385,5.262,3.069l49.109-29.378
		c2.192-1.315,2.192-4.385,0-5.7l-48.671-29.816c-2.192-1.315-5.262,0.438-5.262,3.069v14.47H83.749l0,0l0,0h-0.438l0,0
		C37.271,220.618,0,256.573,0,300.86c0,44.725,37.709,80.68,83.749,80.68c46.041,0,83.75-35.955,83.75-80.68
		C167.499,281.566,160.484,264.027,149.083,249.996z M117.074,347.339c-3.07,1.315-5.701,2.192-8.771,3.069
		c-11.4,3.069-23.239,3.069-34.64-0.438c-14.031-4.385-23.239-13.593-28.501-26.309c-0.877-2.631-1.754-5.262-2.631-7.893H31.571
		c-1.754,0-3.508-1.315-3.508-3.069v-7.016c0-1.754,1.315-3.069,3.508-3.069h9.208c0-2.193,0-3.947,0-5.701h-9.208
		c-1.754,0-3.508-1.314-3.508-3.068v-7.017c0-1.754,1.315-3.069,3.508-3.069h11.4l0.438-1.315
		c3.069-9.208,8.331-17.539,16.662-23.678c6.577-4.823,14.031-7.454,21.924-8.77c11.4-1.754,22.363-0.438,33.325,3.946
		c0.877,0.438,1.315,0.438,2.192,0.877c2.631,1.315,3.508,3.069,2.192,6.139c-1.315,2.631-2.631,5.7-3.508,8.331
		c-1.315,2.192-2.631,3.069-5.262,2.631c-3.508-0.877-7.017-1.754-10.963-2.631c-7.893-1.315-15.347-1.754-22.801,1.315
		c-6.577,2.631-10.523,7.016-13.154,13.154c0,0,0,0,0,0.438H86.38c1.754,0,3.508,1.315,3.508,3.069v7.016
		c0,1.754-1.315,3.07-3.508,3.07H60.948c0,1.754,0,3.945,0,5.699H86.38c1.754,0,3.508,1.316,3.508,3.07v7.016
		c0,1.754-1.315,3.069-3.508,3.069H63.141c2.631,7.893,7.454,13.593,15.785,16.224c7.016,2.192,13.594,2.192,20.609,0.438
		c3.508-0.877,7.016-1.754,10.523-2.631c2.631-0.438,4.385,0,5.7,2.631s2.631,5.7,3.508,8.331
		C120.582,343.831,119.705,346.023,117.074,347.339z"/>
	<path fill="#FECB04" d="M337.191,220.179c-46.04,0-83.75,35.955-83.75,80.681c0,19.293,7.017,36.832,18.417,50.863h-47.795v-14.47
		c0-2.631-3.069-4.385-5.262-3.069l-49.109,29.378c-2.192,1.315-2.192,4.385,0,5.7l49.109,29.378
		c2.192,1.315,5.262-0.438,5.262-3.069v-14.47h113.128l0,0l0,0h0.438l0,0c46.04-0.438,83.312-36.394,83.312-80.68
		C420.941,256.135,383.231,220.179,337.191,220.179z M361.307,332.869c-3.508,4.385-8.331,7.016-14.031,8.77
		c-2.631,0.438-3.508,1.754-3.508,4.385s0,4.823,0,7.016s-1.315,3.069-3.508,3.069c-2.631,0-5.262,0-7.893,0
		c-2.192,0-3.508-1.315-3.508-3.508c0-1.754,0-3.508,0-5.262c0-3.946,0-3.946-3.946-4.385c-4.823-0.877-9.646-1.754-14.031-3.946
		c-3.508-1.754-3.946-2.631-3.069-6.139c0.877-2.631,1.315-5.262,2.192-7.893c0.877-3.069,1.754-3.508,4.823-2.192
		c4.823,2.631,10.085,3.946,15.785,4.385c3.508,0.438,7.016,0,10.523-1.315c6.139-2.631,7.016-9.646,1.754-13.593
		c-1.754-1.315-3.946-2.631-5.7-3.508c-5.262-2.192-10.962-3.946-16.224-7.016c-8.331-4.823-13.593-11.4-12.716-21.047
		c0.877-10.962,7.016-17.978,17.539-21.485c4.385-1.315,4.385-1.315,4.385-5.7c0-1.315,0-3.069,0-4.385
		c0-3.07,0.877-3.946,3.946-3.946c0.877,0,2.192,0,3.069,0c7.016,0,7.016,0,7.016,7.016c0,4.823,0,4.823,5.262,5.7
		c3.946,0.438,7.454,1.754,10.962,3.069c2.192,0.877,2.631,2.192,2.192,3.946c-0.877,3.069-1.754,6.139-2.631,9.208
		c-0.877,2.631-1.754,3.069-4.823,1.754c-5.7-2.631-11.4-3.508-17.539-3.508c-1.754,0-3.069,0.438-4.823,0.877
		c-5.262,2.192-6.139,7.893-1.754,11.4c2.192,1.754,4.823,3.069,7.893,3.946c4.823,1.754,9.646,3.508,14.031,6.139
		C367.446,303.491,371.392,321.03,361.307,332.869z"/>
</g>
</svg>
